<svg xmlns="http://www.w3.org/2000/svg" width="350" height="350" viewBox="0 0 350 350"><g transform="translate(-977 -252)"><rect width="350" height="350" transform="translate(977 252)" fill="#e4e4e4"/><path d="M299.821,292.236l-7.5-30a43.562,43.562,0,0,0-28.563-30.987l-55-18.325c-13.413-5.587-19.55-27.187-20.876-35.388a51.974,51.974,0,0,0,18.376-33.787,10.19,10.19,0,0,1,1.512-6.438,6.249,6.249,0,0,0,4.287-3.75,93.423,93.423,0,0,0,6.7-27.312,6.008,6.008,0,0,0-.187-1.512,16.075,16.075,0,0,0-6.063-9.1V62.5c0-20.137-6.15-28.4-12.626-33.187C198.644,19.612,188.256,0,150,0A65.176,65.176,0,0,0,87.5,62.5V95.638a16.075,16.075,0,0,0-6.063,9.1,6.011,6.011,0,0,0-.188,1.512,93.428,93.428,0,0,0,6.7,27.325,5.313,5.313,0,0,0,3.75,3.588c.7.35,2.013,2.163,2.013,6.588a51.962,51.962,0,0,0,18.476,33.85c-1.313,8.187-7.413,29.775-20.45,35.225L36.252,231.25A43.563,43.563,0,0,0,7.7,262.212l-7.5,30A6.251,6.251,0,0,0,6.251,300H293.759a6.249,6.249,0,0,0,6.062-7.764Z" transform="translate(1001.992 302)" fill="#666"/></g></svg>