<svg xmlns="http://www.w3.org/2000/svg" width="350" height="350" viewBox="0 0 350 350"><g transform="translate(-405 -252)"><rect width="350" height="350" transform="translate(405 252)" fill="#e4e4e4"/><g transform="translate(423 325.996)"><g transform="translate(17 -21.996)"><path d="M247.027,2.276A9.064,9.064,0,0,0,240.09.053L79.375,17.91a8.928,8.928,0,0,0-7.946,8.875V185.9a51.661,51.661,0,0,0-26.786-7.331C20.027,178.575,0,194.593,0,214.289S20.027,250,44.643,250s44.643-16.009,44.643-35.715V79.466L232.143,63.555V168.021a51.664,51.664,0,0,0-26.786-7.3c-24.616,0-44.643,16.018-44.643,35.715s20.027,35.715,44.643,35.715S250,216.138,250,196.432V8.928A8.928,8.928,0,0,0,247.027,2.276Z" transform="translate(0 -0.004)" fill="#666"/></g></g></g></svg>